<svg width="92" height="92" viewBox="0 0 92 92" fill="none" xmlns="http://www.w3.org/2000/svg">
<rect width="92" height="92" rx="24" fill="white"/>
<g clip-path="url(#clip0_22728_11387)">
<path d="M74.5265 51.7273C73.839 51.4426 73.1152 51.2982 72.3754 51.2982C70.7436 51.2982 69.2364 51.9946 68.1897 53.1615L66.9697 52.6562L63.4896 51.2147C63.9835 49.5616 64.25 47.8113 64.25 45.9998C64.25 44.1883 63.9834 42.4381 63.4896 40.7849L66.9697 39.3435L68.1897 38.8381C69.2364 40.0051 70.7436 40.7014 72.3754 40.7014C73.1152 40.7014 73.839 40.5571 74.5265 40.2722C77.3918 39.0852 78.7576 35.7883 77.5706 32.9227C76.6966 30.8128 74.6561 29.4493 72.3724 29.4493C71.6325 29.4493 70.9087 29.5937 70.2212 29.8786C67.963 30.814 66.6375 33.0598 66.7575 35.3722L65.5304 35.8805L62.0514 37.3215C60.3613 34.208 57.7918 31.6383 54.6783 29.9483L56.1193 26.4694L56.627 25.2436C56.7254 25.2487 56.824 25.2517 56.923 25.2517C59.2069 25.2517 61.2473 23.8884 62.1214 21.7784C63.3083 18.9129 61.9426 15.6159 59.0771 14.4289C58.3895 14.1444 57.6659 14 56.926 14C54.6421 14 52.6018 15.3634 51.7276 17.4734C50.7923 19.7316 51.443 22.257 53.163 23.8072L52.6565 25.0301L51.215 28.5102C49.5619 28.0165 47.8117 27.7498 46.0002 27.7498C44.1887 27.7498 42.4384 28.0165 40.7853 28.5102L39.3438 25.0301L38.8373 23.8072C40.5573 22.257 41.208 19.7316 40.2727 17.4732C39.3985 15.3634 37.3579 14 35.0742 14C34.3343 14 33.6106 14.1444 32.9231 14.4292C30.0577 15.6162 28.6919 18.9131 29.8789 21.7787C30.7529 23.8886 32.7934 25.2521 35.0772 25.2521C35.1762 25.2521 35.2748 25.2491 35.3732 25.244L35.8809 26.4697L37.3219 29.9487C34.2084 31.6388 31.6388 34.2083 29.9488 37.3218L26.4698 35.8808L25.2427 35.3726C25.3627 33.0602 24.0372 30.8143 21.779 29.8788C21.0915 29.5941 20.3677 29.4497 19.6278 29.4497C17.344 29.4497 15.3036 30.8131 14.4295 32.9231C13.2426 35.7886 14.6082 39.0856 17.4737 40.2726C18.1612 40.5573 18.885 40.7017 19.6248 40.7017C21.2566 40.7017 22.7638 40.0053 23.8104 38.8383L25.0304 39.3437L28.5106 40.7852C28.0167 42.4383 27.7502 44.1886 27.7502 46.0001C27.7502 47.8116 28.0168 49.5618 28.5106 51.2149L25.0303 52.6562L23.8103 53.1615C22.7637 51.9946 21.2565 51.2982 19.6247 51.2982C18.8848 51.2982 18.1611 51.4426 17.4736 51.7274C14.6082 52.9144 13.2425 56.2113 14.4295 59.0769C15.3035 61.1868 17.344 62.5503 19.6277 62.5503C20.3676 62.5503 21.0913 62.4059 21.7788 62.121C24.0371 61.1857 25.3626 58.9398 25.2426 56.6274L26.4697 56.1192L29.9487 54.6782C31.6388 57.7917 34.2083 60.3613 37.3218 62.0513L35.8808 65.5303L35.3731 66.756C35.2747 66.7509 35.1761 66.7479 35.0771 66.7479C32.7932 66.7479 30.7528 68.1113 29.8787 70.2213C28.6918 73.0868 30.0574 76.3838 32.9229 77.5708C33.6104 77.8555 34.3342 77.9999 35.0741 77.9999C37.3579 77.9999 39.3983 76.6365 40.2724 74.5265C41.2078 72.2683 40.557 69.7429 38.837 68.1926L39.3435 66.9698L40.785 63.4897C42.4382 63.9834 44.1884 64.25 45.9999 64.25C47.8114 64.25 49.5616 63.9834 51.2148 63.4897L52.6563 66.9698L53.1628 68.1926C51.4428 69.7429 50.792 72.2683 51.7274 74.5266C52.6014 76.6365 54.6419 78 56.9256 78C57.6655 78 58.3893 77.8556 59.0768 77.5708C61.9421 76.3838 63.3079 73.0869 62.1209 70.2213C61.2469 68.1114 59.2064 66.7479 56.9226 66.7479C56.8236 66.7479 56.725 66.7509 56.6266 66.756L56.1189 65.5303L54.6779 62.0513C57.7914 60.3612 60.361 57.7917 62.051 54.6782L65.53 56.1192L66.7571 56.6274C66.6371 58.9398 67.9626 61.1857 70.2209 62.1212C70.9084 62.4059 71.6321 62.5503 72.372 62.5503C74.6559 62.5503 76.6962 61.1869 77.5703 59.0769C78.7576 56.2113 77.3921 52.9143 74.5265 51.7273ZM46.0002 60.4998C38.0049 60.4998 31.5002 53.995 31.5002 45.9998C31.5002 38.0046 38.0049 31.4998 46.0002 31.4998C53.9954 31.4998 60.5001 38.0046 60.5001 45.9998C60.5001 53.995 53.9953 60.4998 46.0002 60.4998Z" fill="black"/>
<path d="M74.5265 51.7273C73.839 51.4426 73.1152 51.2982 72.3754 51.2982C70.7436 51.2982 69.2364 51.9946 68.1897 53.1615L66.9697 52.6562L63.4896 51.2147C63.9835 49.5616 64.25 47.8113 64.25 45.9998C64.25 44.1883 63.9834 42.4381 63.4896 40.7849L66.9697 39.3435L68.1897 38.8381C69.2364 40.0051 70.7436 40.7014 72.3754 40.7014C73.1152 40.7014 73.839 40.5571 74.5265 40.2722C77.3918 39.0852 78.7576 35.7883 77.5706 32.9227C76.6966 30.8128 74.6561 29.4493 72.3724 29.4493C71.6325 29.4493 70.9087 29.5937 70.2212 29.8786C67.963 30.814 66.6375 33.0598 66.7575 35.3722L65.5304 35.8805L62.0514 37.3215C60.3613 34.208 57.7918 31.6383 54.6783 29.9483L56.1193 26.4694L56.627 25.2436C56.7254 25.2487 56.824 25.2517 56.923 25.2517C59.2069 25.2517 61.2473 23.8884 62.1214 21.7784C63.3083 18.9129 61.9426 15.6159 59.0771 14.4289C58.3895 14.1444 57.6659 14 56.926 14C54.6421 14 52.6018 15.3634 51.7276 17.4734C50.7923 19.7316 51.443 22.257 53.163 23.8072L52.6565 25.0301L51.215 28.5102C49.5619 28.0165 47.8117 27.7498 46.0002 27.7498C44.1887 27.7498 42.4384 28.0165 40.7853 28.5102L39.3438 25.0301L38.8373 23.8072C40.5573 22.257 41.208 19.7316 40.2727 17.4732C39.3985 15.3634 37.3579 14 35.0742 14C34.3343 14 33.6106 14.1444 32.9231 14.4292C30.0577 15.6162 28.6919 18.9131 29.8789 21.7787C30.7529 23.8886 32.7934 25.2521 35.0772 25.2521C35.1762 25.2521 35.2748 25.2491 35.3732 25.244L35.8809 26.4697L37.3219 29.9487C34.2084 31.6388 31.6388 34.2083 29.9488 37.3218L26.4698 35.8808L25.2427 35.3726C25.3627 33.0602 24.0372 30.8143 21.779 29.8788C21.0915 29.5941 20.3677 29.4497 19.6278 29.4497C17.344 29.4497 15.3036 30.8131 14.4295 32.9231C13.2426 35.7886 14.6082 39.0856 17.4737 40.2726C18.1612 40.5573 18.885 40.7017 19.6248 40.7017C21.2566 40.7017 22.7638 40.0053 23.8104 38.8383L25.0304 39.3437L28.5106 40.7852C28.0167 42.4383 27.7502 44.1886 27.7502 46.0001C27.7502 47.8116 28.0168 49.5618 28.5106 51.2149L25.0303 52.6562L23.8103 53.1615C22.7637 51.9946 21.2565 51.2982 19.6247 51.2982C18.8848 51.2982 18.1611 51.4426 17.4736 51.7274C14.6082 52.9144 13.2425 56.2113 14.4295 59.0769C15.3035 61.1868 17.344 62.5503 19.6277 62.5503C20.3676 62.5503 21.0913 62.4059 21.7788 62.121C24.0371 61.1857 25.3626 58.9398 25.2426 56.6274L26.4697 56.1192L29.9487 54.6782C31.6388 57.7917 34.2083 60.3613 37.3218 62.0513L35.8808 65.5303L35.3731 66.756C35.2747 66.7509 35.1761 66.7479 35.0771 66.7479C32.7932 66.7479 30.7528 68.1113 29.8787 70.2213C28.6918 73.0868 30.0574 76.3838 32.9229 77.5708C33.6104 77.8555 34.3342 77.9999 35.0741 77.9999C37.3579 77.9999 39.3983 76.6365 40.2724 74.5265C41.2078 72.2683 40.557 69.7429 38.837 68.1926L39.3435 66.9698L40.785 63.4897C42.4382 63.9834 44.1884 64.25 45.9999 64.25C47.8114 64.25 49.5616 63.9834 51.2148 63.4897L52.6563 66.9698L53.1628 68.1926C51.4428 69.7429 50.792 72.2683 51.7274 74.5266C52.6014 76.6365 54.6419 78 56.9256 78C57.6655 78 58.3893 77.8556 59.0768 77.5708C61.9421 76.3838 63.3079 73.0869 62.1209 70.2213C61.2469 68.1114 59.2064 66.7479 56.9226 66.7479C56.8236 66.7479 56.725 66.7509 56.6266 66.756L56.1189 65.5303L54.6779 62.0513C57.7914 60.3612 60.361 57.7917 62.051 54.6782L65.53 56.1192L66.7571 56.6274C66.6371 58.9398 67.9626 61.1857 70.2209 62.1212C70.9084 62.4059 71.6321 62.5503 72.372 62.5503C74.6559 62.5503 76.6962 61.1869 77.5703 59.0769C78.7576 56.2113 77.3921 52.9143 74.5265 51.7273ZM46.0002 60.4998C38.0049 60.4998 31.5002 53.995 31.5002 45.9998C31.5002 38.0046 38.0049 31.4998 46.0002 31.4998C53.9954 31.4998 60.5001 38.0046 60.5001 45.9998C60.5001 53.995 53.9953 60.4998 46.0002 60.4998Z" fill="url(#paint0_linear_22728_11387)"/>
<path d="M46 35.25C40.0725 35.25 35.25 40.0725 35.25 46C35.25 51.9275 40.0725 56.75 46 56.75C51.9275 56.75 56.75 51.9275 56.75 46C56.75 40.0725 51.9275 35.25 46 35.25ZM47.875 50.125H44.125V41.875H47.875V50.125Z" fill="black"/>
<path d="M46 35.25C40.0725 35.25 35.25 40.0725 35.25 46C35.25 51.9275 40.0725 56.75 46 56.75C51.9275 56.75 56.75 51.9275 56.75 46C56.75 40.0725 51.9275 35.25 46 35.25ZM47.875 50.125H44.125V41.875H47.875V50.125Z" fill="url(#paint1_linear_22728_11387)"/>
</g>
<defs>
<linearGradient id="paint0_linear_22728_11387" x1="46" y1="14" x2="46" y2="78" gradientUnits="userSpaceOnUse">
<stop stop-color="#EF8080"/>
<stop offset="1" stop-color="#F0145A"/>
</linearGradient>
<linearGradient id="paint1_linear_22728_11387" x1="46" y1="35.25" x2="46" y2="56.75" gradientUnits="userSpaceOnUse">
<stop stop-color="#EF8080"/>
<stop offset="1" stop-color="#F0145A"/>
</linearGradient>
<clipPath id="clip0_22728_11387">
<rect width="64" height="64" fill="white" transform="translate(14 14)"/>
</clipPath>
</defs>
</svg>
