<svg width="26" height="21" viewBox="0 0 26 21" fill="none" xmlns="http://www.w3.org/2000/svg">
<path d="M13.7931 12.6384V12.0804C13.7931 11.3999 13.2416 10.8484 12.5616 10.8484C11.8811 10.8484 11.3296 11.3999 11.3296 12.0804V12.6384C11.3296 13.3189 11.8811 13.8704 12.5616 13.8704C13.2411 13.8704 13.7931 13.3189 13.7931 12.6384Z" fill="#F0145A"/>
<path d="M14.6379 13.32C14.3649 14.2135 13.5424 14.8695 12.5614 14.8695C11.5799 14.8695 10.7574 14.2135 10.4844 13.32H1.99989C1.46439 13.32 0.958395 13.1955 0.504395 12.9795V18.613C0.504395 19.713 1.40439 20.613 2.50439 20.613H22.6174C23.7174 20.613 24.6174 19.713 24.6174 18.613V12.98C24.1629 13.196 23.6574 13.3205 23.1219 13.3205H14.6379V13.32Z" fill="#F0145A"/>
<path d="M23.0385 3.204H18.238C17.948 1.391 16.3775 0 14.484 0H10.6375C8.744 0 7.174 1.391 6.8835 3.204H2.0835C0.9375 3.204 0 4.104 0 5.204V9.8205C0 10.925 0.8955 11.8205 2 11.8205H10.39C10.4185 11.245 10.6655 10.728 11.056 10.354C11.068 10.3425 11.082 10.3335 11.0945 10.3225C11.181 10.243 11.271 10.168 11.3695 10.103C11.4045 10.0795 11.4445 10.0635 11.481 10.0425C11.562 9.996 11.642 9.9475 11.7295 9.9115C11.798 9.883 11.872 9.8665 11.944 9.845C12.006 9.8265 12.065 9.802 12.1295 9.789C12.269 9.7605 12.4135 9.7455 12.561 9.7455C12.709 9.7455 12.853 9.761 12.9925 9.789C13.0565 9.802 13.1155 9.8265 13.1775 9.845C13.2495 9.8665 13.3235 9.883 13.392 9.912C13.479 9.948 13.5585 9.996 13.6395 10.0425C13.6765 10.064 13.7165 10.08 13.752 10.1035C13.8505 10.168 13.94 10.243 14.0265 10.3225C14.039 10.334 14.0535 10.343 14.0655 10.355C14.4565 10.729 14.703 11.246 14.7315 11.8215H23.1215C24.226 11.8215 25.1215 10.926 25.1215 9.8215V5.205C25.122 4.104 24.1845 3.204 23.0385 3.204ZM8.809 3.204C9.064 2.4335 9.7825 1.872 10.6375 1.872H14.484C15.339 1.872 16.0575 2.4335 16.3125 3.204H8.809Z" fill="#F0145A"/>
</svg>
