<svg width="25" height="25" viewBox="0 0 25 25" fill="none" xmlns="http://www.w3.org/2000/svg">
<path d="M12.413 0C5.5685 0 0 5.5685 0 12.413C0 19.258 5.5685 24.827 12.413 24.827C19.2575 24.827 24.826 19.258 24.826 12.413C24.8265 5.5685 19.258 0 12.413 0ZM19.2715 11.5055V11.506L15.678 14.106L17.062 18.336C17.084 18.402 17.0955 18.4725 17.0955 18.5445C17.0955 18.914 16.7965 19.214 16.427 19.214C16.28 19.214 16.145 19.167 16.035 19.0875L12.4135 16.468L8.792 19.0875C8.682 19.167 8.547 19.214 8.4005 19.214C8.0305 19.214 7.731 18.9145 7.731 18.5445C7.731 18.472 7.743 18.402 7.765 18.336L9.1495 14.106L5.556 11.506V11.5055C5.388 11.3845 5.279 11.187 5.279 10.964C5.279 10.5945 5.578 10.2955 5.948 10.2955H10.3965L11.774 6.085C11.858 5.8115 12.1125 5.6125 12.414 5.6125C12.715 5.6125 12.97 5.8115 13.0535 6.085L14.431 10.2955H18.8795C19.249 10.2955 19.5485 10.5945 19.5485 10.964C19.548 11.187 19.439 11.3845 19.2715 11.5055Z" fill="#F0145A"/>
</svg>
